<svg xmlns="http://www.w3.org/2000/svg" width="1200" height="700" viewBox="0 0 1200 700" fill="none">
  <rect width="1200" height="700" fill="#EEF8F2"/>
  <rect x="40" y="40" width="1120" height="90" rx="28" fill="#FFFFFF"/>
  <rect x="40" y="170" width="360" height="490" rx="32" fill="#FFFFFF"/>
  <rect x="430" y="170" width="340" height="490" rx="32" fill="#FFFFFF"/>
  <rect x="800" y="170" width="360" height="490" rx="32" fill="#FFFFFF"/>
  <rect x="70" y="208" width="180" height="18" rx="9" fill="#2F7D4F"/>
  <rect x="70" y="242" width="270" height="120" rx="18" fill="#F5EFE4"/>
  <rect x="460" y="208" width="180" height="18" rx="9" fill="#2F7D4F"/>
  <rect x="460" y="242" width="250" height="44" rx="22" fill="#2F7D4F"/>
  <rect x="460" y="302" width="250" height="44" rx="22" fill="#2F7D4F"/>
  <rect x="830" y="208" width="180" height="18" rx="9" fill="#2F7D4F"/>
  <rect x="830" y="242" width="290" height="150" rx="18" fill="#F5EFE4"/>
  <rect x="830" y="414" width="290" height="150" rx="18" fill="#F5EFE4"/>
</svg>
